# MagicaVoxel @ Ephtracy

# group
g test_block

# material
mtllib test_block.mtl
usemtl palette

# normals
vn -1 0 0
vn 1 0 0
vn 0 0 1
vn 0 0 -1
vn 0 -1 0
vn 0 1 0

# texcoords
vt 0.306641 0.5
vt 0.708984 0.5

# verts
v -20 0 20
v -20 0 -20
v -20 5 -10
v -20 5 -16
v -20 6 13
v -20 6 -1
v -20 8 13
v -20 8 -1
v -20 19 16
v -20 19 -5
v -20 30 16
v -20 30 -5
v -20 34 -10
v -20 34 -16
v -20 35 10
v -20 35 -7
v -20 37 10
v -20 37 -7
v -20 40 20
v -20 40 -20
v 20 0 20
v 20 0 -20
v 20 8 3
v 20 8 -5
v 20 11 18
v 20 11 15
v 20 12 3
v 20 12 -5
v 20 15 -11
v 20 15 -14
v 20 16 11
v 20 16 -7
v 20 28 18
v 20 28 15
v 20 30 11
v 20 30 -7
v 20 30 -11
v 20 30 -14
v 20 34 14
v 20 34 7
v 20 35 -4
v 20 35 -16
v 20 36 14
v 20 36 7
v 20 37 -4
v 20 37 -16
v 20 40 20
v 20 40 -20
v -20 0 20
v -20 40 20
v -16 2 20
v -16 3 20
v -16 24 20
v -16 32 20
v -15 12 20
v -15 14 20
v -14 12 20
v -14 14 20
v -12 2 20
v -12 3 20
v -12 24 20
v -12 32 20
v -9 8 20
v -9 37 20
v 9 8 20
v 9 37 20
v 13 22 20
v 13 29 20
v 15 22 20
v 15 29 20
v 20 0 20
v 20 40 20
v -20 0 -20
v -20 40 -20
v -18 15 -20
v -18 19 -20
v -18 39 -20
v -18 40 -20
v -17 15 -20
v -17 19 -20
v -16 30 -20
v -16 35 -20
v -11 5 -20
v -11 11 -20
v -11 30 -20
v -11 35 -20
v -10 17 -20
v -10 29 -20
v -10 39 -20
v -10 40 -20
v 4 17 -20
v 4 29 -20
v 8 16 -20
v 8 17 -20
v 9 16 -20
v 9 17 -20
v 10 28 -20
v 10 34 -20
v 13 5 -20
v 13 11 -20
v 16 28 -20
v 16 34 -20
v 20 0 -20
v 20 40 -20
v -20 0 20
v 20 0 20
v -11 0 9
v 11 0 9
v -11 0 -13
v 11 0 -13
v -20 0 -20
v 20 0 -20
v -20 40 20
v 20 40 20
v -14 40 19
v -5 40 19
v 16 40 19
v 17 40 19
v -4 40 14
v 13 40 14
v 16 40 10
v 17 40 10
v -14 40 8
v -5 40 8
v -18 40 2
v -13 40 2
v -18 40 -0
v -13 40 -0
v -18 40 -4
v -10 40 -4
v -4 40 -10
v 13 40 -10
v -5 40 -13
v 6 40 -13
v -5 40 -15
v 6 40 -15
v -20 40 -20
v -18 40 -20
v -10 40 -20
v 20 40 -20

# faces
f 3/1/1 2/1/1 1/1/1
f 4/1/1 2/1/1 3/1/1
f 5/1/1 3/1/1 1/1/1
f 6/1/1 3/1/1 5/1/1
f 7/1/1 5/1/1 1/1/1
f 7/2/1 6/2/1 5/2/1
f 8/1/1 3/1/1 6/1/1
f 8/2/1 6/2/1 7/2/1
f 9/1/1 7/1/1 1/1/1
f 9/1/1 8/1/1 7/1/1
f 10/1/1 3/1/1 8/1/1
f 10/1/1 8/1/1 9/1/1
f 11/1/1 9/1/1 1/1/1
f 11/2/1 10/2/1 9/2/1
f 12/1/1 3/1/1 10/1/1
f 12/2/1 10/2/1 11/2/1
f 13/2/1 4/2/1 3/2/1
f 13/1/1 3/1/1 12/1/1
f 13/1/1 12/1/1 11/1/1
f 14/1/1 2/1/1 4/1/1
f 14/2/1 4/2/1 13/2/1
f 15/1/1 13/1/1 11/1/1
f 15/1/1 14/1/1 13/1/1
f 16/1/1 14/1/1 15/1/1
f 17/1/1 15/1/1 11/1/1
f 17/2/1 16/2/1 15/2/1
f 18/1/1 14/1/1 16/1/1
f 18/2/1 16/2/1 17/2/1
f 19/1/1 11/1/1 1/1/1
f 19/1/1 17/1/1 11/1/1
f 19/1/1 18/1/1 17/1/1
f 20/1/1 2/1/1 14/1/1
f 20/1/1 18/1/1 19/1/1
f 20/1/1 14/1/1 18/1/1
f 21/1/2 22/1/2 23/1/2
f 23/1/2 22/1/2 24/1/2
f 21/1/2 23/1/2 25/1/2
f 25/1/2 23/1/2 26/1/2
f 23/2/2 24/2/2 27/2/2
f 26/1/2 23/1/2 27/1/2
f 24/1/2 22/1/2 28/1/2
f 27/2/2 24/2/2 28/2/2
f 27/1/2 28/1/2 29/1/2
f 28/1/2 22/1/2 29/1/2
f 29/1/2 22/1/2 30/1/2
f 26/1/2 27/1/2 31/1/2
f 27/1/2 29/1/2 31/1/2
f 31/1/2 29/1/2 32/1/2
f 25/2/2 26/2/2 33/2/2
f 21/1/2 25/1/2 33/1/2
f 26/1/2 31/1/2 34/1/2
f 33/2/2 26/2/2 34/2/2
f 31/2/2 32/2/2 35/2/2
f 34/1/2 31/1/2 35/1/2
f 33/1/2 34/1/2 35/1/2
f 32/1/2 29/1/2 36/1/2
f 35/2/2 32/2/2 36/2/2
f 29/2/2 30/2/2 37/2/2
f 36/1/2 29/1/2 37/1/2
f 30/1/2 22/1/2 38/1/2
f 37/2/2 30/2/2 38/2/2
f 36/1/2 37/1/2 39/1/2
f 33/1/2 35/1/2 39/1/2
f 37/1/2 38/1/2 39/1/2
f 35/1/2 36/1/2 39/1/2
f 39/1/2 38/1/2 40/1/2
f 40/1/2 38/1/2 41/1/2
f 38/1/2 22/1/2 42/1/2
f 41/1/2 38/1/2 42/1/2
f 33/1/2 39/1/2 43/1/2
f 39/2/2 40/2/2 43/2/2
f 40/1/2 41/1/2 44/1/2
f 43/2/2 40/2/2 44/2/2
f 41/2/2 42/2/2 45/2/2
f 44/1/2 41/1/2 45/1/2
f 43/1/2 44/1/2 45/1/2
f 42/1/2 22/1/2 46/1/2
f 45/2/2 42/2/2 46/2/2
f 33/1/2 43/1/2 47/1/2
f 21/1/2 33/1/2 47/1/2
f 45/1/2 46/1/2 47/1/2
f 43/1/2 45/1/2 47/1/2
f 46/1/2 22/1/2 48/1/2
f 47/1/2 46/1/2 48/1/2
f 51/1/3 50/1/3 49/1/3
f 52/1/3 50/1/3 51/1/3
f 53/1/3 50/1/3 52/1/3
f 54/1/3 50/1/3 53/1/3
f 55/1/3 53/1/3 52/1/3
f 56/1/3 53/1/3 55/1/3
f 57/1/3 55/1/3 52/1/3
f 57/2/3 56/2/3 55/2/3
f 58/1/3 53/1/3 56/1/3
f 58/2/3 56/2/3 57/2/3
f 59/1/3 51/1/3 49/1/3
f 59/2/3 52/2/3 51/2/3
f 60/1/3 58/1/3 57/1/3
f 60/2/3 52/2/3 59/2/3
f 60/1/3 57/1/3 52/1/3
f 61/1/3 53/1/3 58/1/3
f 61/1/3 58/1/3 60/1/3
f 61/2/3 54/2/3 53/2/3
f 62/1/3 50/1/3 54/1/3
f 62/2/3 54/2/3 61/2/3
f 63/1/3 60/1/3 59/1/3
f 63/1/3 61/1/3 60/1/3
f 63/1/3 62/1/3 61/1/3
f 64/1/3 50/1/3 62/1/3
f 64/1/3 62/1/3 63/1/3
f 65/1/3 63/1/3 59/1/3
f 65/2/3 64/2/3 63/2/3
f 66/1/3 50/1/3 64/1/3
f 66/2/3 64/2/3 65/2/3
f 67/1/3 66/1/3 65/1/3
f 68/1/3 66/1/3 67/1/3
f 69/1/3 67/1/3 65/1/3
f 69/2/3 68/2/3 67/2/3
f 70/1/3 66/1/3 68/1/3
f 70/2/3 68/2/3 69/2/3
f 71/1/3 65/1/3 59/1/3
f 71/1/3 59/1/3 49/1/3
f 71/1/3 70/1/3 69/1/3
f 71/1/3 69/1/3 65/1/3
f 72/1/3 66/1/3 70/1/3
f 72/1/3 70/1/3 71/1/3
f 72/1/3 50/1/3 66/1/3
f 73/1/4 74/1/4 75/1/4
f 75/1/4 74/1/4 76/1/4
f 76/1/4 74/1/4 77/1/4
f 77/1/4 74/1/4 78/1/4
f 73/1/4 75/1/4 79/1/4
f 75/2/4 76/2/4 79/2/4
f 76/1/4 77/1/4 80/1/4
f 79/2/4 76/2/4 80/2/4
f 79/1/4 80/1/4 81/1/4
f 80/1/4 77/1/4 81/1/4
f 81/1/4 77/1/4 82/1/4
f 73/1/4 79/1/4 83/1/4
f 79/1/4 81/1/4 83/1/4
f 83/1/4 81/1/4 84/1/4
f 81/2/4 82/2/4 85/2/4
f 84/1/4 81/1/4 85/1/4
f 82/1/4 77/1/4 86/1/4
f 85/2/4 82/2/4 86/2/4
f 84/1/4 85/1/4 87/1/4
f 85/1/4 86/1/4 87/1/4
f 87/1/4 86/1/4 88/1/4
f 77/2/4 78/2/4 89/2/4
f 88/1/4 86/1/4 89/1/4
f 86/1/4 77/1/4 89/1/4
f 89/2/4 78/2/4 90/2/4
f 87/2/4 88/2/4 91/2/4
f 84/1/4 87/1/4 91/1/4
f 89/1/4 90/1/4 92/1/4
f 91/2/4 88/2/4 92/2/4
f 88/1/4 89/1/4 92/1/4
f 84/1/4 91/1/4 93/1/4
f 91/1/4 92/1/4 93/1/4
f 93/1/4 92/1/4 94/1/4
f 84/1/4 93/1/4 95/1/4
f 93/2/4 94/2/4 95/2/4
f 94/1/4 92/1/4 96/1/4
f 95/2/4 94/2/4 96/2/4
f 95/1/4 96/1/4 97/1/4
f 96/1/4 92/1/4 97/1/4
f 92/1/4 90/1/4 98/1/4
f 97/1/4 92/1/4 98/1/4
f 83/2/4 84/2/4 99/2/4
f 73/1/4 83/1/4 99/1/4
f 95/1/4 97/1/4 100/1/4
f 99/2/4 84/2/4 100/2/4
f 84/1/4 95/1/4 100/1/4
f 97/2/4 98/2/4 101/2/4
f 100/1/4 97/1/4 101/1/4
f 99/1/4 100/1/4 101/1/4
f 98/1/4 90/1/4 102/1/4
f 101/2/4 98/2/4 102/2/4
f 73/1/4 99/1/4 103/1/4
f 99/1/4 101/1/4 103/1/4
f 101/1/4 102/1/4 103/1/4
f 102/1/4 90/1/4 104/1/4
f 103/1/4 102/1/4 104/1/4
f 107/1/5 106/1/5 105/1/5
f 108/1/5 106/1/5 107/1/5
f 109/1/5 107/1/5 105/1/5
f 109/2/5 108/2/5 107/2/5
f 110/1/5 106/1/5 108/1/5
f 110/2/5 108/2/5 109/2/5
f 111/1/5 109/1/5 105/1/5
f 111/1/5 110/1/5 109/1/5
f 112/1/5 106/1/5 110/1/5
f 112/1/5 110/1/5 111/1/5
f 113/1/6 114/1/6 115/1/6
f 115/1/6 114/1/6 116/1/6
f 116/1/6 114/1/6 117/1/6
f 117/1/6 114/1/6 118/1/6
f 116/1/6 117/1/6 119/1/6
f 119/1/6 117/1/6 120/1/6
f 117/2/6 118/2/6 121/2/6
f 120/1/6 117/1/6 121/1/6
f 118/1/6 114/1/6 122/1/6
f 121/2/6 118/2/6 122/2/6
f 113/1/6 115/1/6 123/1/6
f 115/2/6 116/2/6 123/2/6
f 116/1/6 119/1/6 124/1/6
f 123/2/6 116/2/6 124/2/6
f 113/1/6 123/1/6 125/1/6
f 123/1/6 124/1/6 125/1/6
f 125/1/6 124/1/6 126/1/6
f 113/1/6 125/1/6 127/1/6
f 125/2/6 126/2/6 127/2/6
f 126/1/6 124/1/6 128/1/6
f 127/2/6 126/2/6 128/2/6
f 113/1/6 127/1/6 129/1/6
f 127/1/6 128/1/6 129/1/6
f 128/1/6 124/1/6 130/1/6
f 129/1/6 128/1/6 130/1/6
f 119/2/6 120/2/6 131/2/6
f 130/1/6 124/1/6 131/1/6
f 124/1/6 119/1/6 131/1/6
f 121/1/6 122/1/6 132/1/6
f 131/2/6 120/2/6 132/2/6
f 120/1/6 121/1/6 132/1/6
f 130/1/6 131/1/6 133/1/6
f 131/1/6 132/1/6 133/1/6
f 133/1/6 132/1/6 134/1/6
f 130/1/6 133/1/6 135/1/6
f 133/2/6 134/2/6 135/2/6
f 134/1/6 132/1/6 136/1/6
f 135/2/6 134/2/6 136/2/6
f 113/1/6 129/1/6 137/1/6
f 129/2/6 130/2/6 138/2/6
f 137/1/6 129/1/6 138/1/6
f 130/1/6 135/1/6 139/1/6
f 138/2/6 130/2/6 139/2/6
f 135/1/6 136/1/6 139/1/6
f 122/1/6 114/1/6 140/1/6
f 139/1/6 136/1/6 140/1/6
f 132/1/6 122/1/6 140/1/6
f 136/1/6 132/1/6 140/1/6
